<svg version="1.1" id="Layer_1" xmlns="http://www.w3.org/2000/svg" xmlns:xlink="http://www.w3.org/1999/xlink" x="0px" y="0px"
	 width="100%" viewBox="0 0 508 502" enable-background="new 0 0 508 502" xml:space="preserve">
<path fill="#FFFFFF" opacity="1.000000" stroke="none" 
	d="
M509.000000,178.000000 
	C509.000000,286.666626 509.000000,394.833282 509.000000,502.999939 
	C339.666748,502.999939 170.333466,502.999939 1.000149,502.999969 
	C1.000099,335.666779 1.000099,168.333542 1.000050,1.000239 
	C170.333191,1.000159 339.666382,1.000159 508.999786,1.000080 
	C509.000000,59.833332 509.000000,118.666664 509.000000,178.000000 
M111.601509,384.110565 
	C101.136185,396.174103 90.714722,408.276062 80.196007,420.292877 
	C60.898613,442.338623 41.526455,464.318970 22.255056,486.387390 
	C21.062225,487.753387 20.474010,489.647400 19.630476,491.246460 
	C44.364414,491.246460 68.502136,491.248260 92.639862,491.244995 
	C97.574211,491.244324 101.006233,488.522064 104.030327,484.997009 
	C109.554443,478.557800 115.091286,472.129028 120.675804,465.742279 
	C137.430603,446.580750 154.281998,427.503235 170.963196,408.278015 
	C191.472992,384.640228 211.975739,360.994080 232.240097,337.146362 
	C246.645889,320.193207 260.652466,302.900787 274.762634,285.849884 
	C216.841370,210.095947 159.336884,134.887054 100.958008,58.534576 
	C116.142143,58.534576 129.920654,58.252762 143.670319,58.757256 
	C146.647293,58.866486 150.443771,61.097881 152.304962,63.539360 
	C187.694397,109.962898 222.837936,156.573822 258.060638,203.124542 
	C270.975800,220.193329 283.963440,237.207230 297.315796,254.769348 
	C361.679596,171.017944 434.835907,95.385811 502.318451,14.689382 
	C501.471497,14.257242 501.198364,13.995828 500.925293,13.995914 
	C476.928955,14.003551 452.929169,13.839828 428.940277,14.275596 
	C425.557068,14.337052 421.322113,16.521240 419.014740,19.096643 
	C399.356018,41.038803 380.047882,63.295174 360.642700,85.464394 
	C336.957794,112.522888 313.280579,139.588120 289.434052,166.840134 
	C288.539368,165.828720 287.720978,165.021515 287.036774,164.113235 
	C250.724289,115.907196 214.374771,67.728806 178.203445,19.417025 
	C174.959427,15.084195 171.001465,13.984174 166.164474,13.981963 
	C115.833946,13.958961 65.503410,13.924462 15.172880,13.915470 
	C13.122332,13.915103 11.071744,14.135927 7.959244,14.314686 
	C74.976341,101.695068 141.250809,188.107193 207.570007,274.577606 
	C207.032639,275.256989 206.647705,275.789093 206.217148,276.281342 
	C190.114975,294.689972 174.026596,313.110718 157.897552,331.495819 
	C142.647903,348.878510 127.354942,366.223175 111.601509,384.110565 
z"/>
<path fill="#16171B" opacity="1.000000" stroke="none" 
	d="
M111.841270,383.847595 
	C127.354942,366.223175 142.647903,348.878510 157.897552,331.495819 
	C174.026596,313.110718 190.114975,294.689972 206.217148,276.281342 
	C206.647705,275.789093 207.032639,275.256989 207.570007,274.577606 
	C141.250809,188.107193 74.976341,101.695068 7.959244,14.314686 
	C11.071744,14.135927 13.122332,13.915103 15.172880,13.915470 
	C65.503410,13.924462 115.833946,13.958961 166.164474,13.981963 
	C171.001465,13.984174 174.959427,15.084195 178.203445,19.417025 
	C214.374771,67.728806 250.724289,115.907196 287.036774,164.113235 
	C287.720978,165.021515 288.539368,165.828720 289.434052,166.840134 
	C313.280579,139.588120 336.957794,112.522888 360.642700,85.464394 
	C380.047882,63.295174 399.356018,41.038803 419.014740,19.096643 
	C421.322113,16.521240 425.557068,14.337052 428.940277,14.275596 
	C452.929169,13.839828 476.928955,14.003551 500.925293,13.995914 
	C501.198364,13.995828 501.471497,14.257242 502.318451,14.689382 
	C434.835907,95.385811 361.679596,171.017944 297.315796,254.769348 
	C283.963440,237.207230 270.975800,220.193329 258.060638,203.124542 
	C222.837936,156.573822 187.694397,109.962898 152.304962,63.539360 
	C150.443771,61.097881 146.647293,58.866486 143.670319,58.757256 
	C129.920654,58.252762 116.142143,58.534576 100.958008,58.534576 
	C159.336884,134.887054 216.841370,210.095947 274.762634,285.849884 
	C260.652466,302.900787 246.645889,320.193207 232.240097,337.146362 
	C211.975739,360.994080 191.472992,384.640228 170.963196,408.278015 
	C154.281998,427.503235 137.430603,446.580750 120.675804,465.742279 
	C115.091286,472.129028 109.554443,478.557800 104.030327,484.997009 
	C101.006233,488.522064 97.574211,491.244324 92.639862,491.244995 
	C68.502136,491.248260 44.364414,491.246460 19.630476,491.246460 
	C20.474010,489.647400 21.062225,487.753387 22.255056,486.387390 
	C41.526455,464.318970 60.898613,442.338623 80.196007,420.292877 
	C90.714722,408.276062 101.136185,396.174103 111.841270,383.847595 
z"/>
</svg>