<svg version="1.1" id="Layer_1" xmlns="http://www.w3.org/2000/svg" xmlns:xlink="http://www.w3.org/1999/xlink" x="0px" y="0px"
	 width="100%" viewBox="0 0 341 339" enable-background="new 0 0 341 339" xml:space="preserve">
<path fill="#FEFEFE" opacity="1.000000" stroke="none" 
	d="
M1.000000,127.000000 
	C1.000000,84.666672 1.000000,42.833347 1.000000,1.000017 
	C114.666634,1.000011 228.333267,1.000011 341.999939,1.000006 
	C341.999939,113.999947 341.999939,226.999893 341.999969,339.999878 
	C228.333405,339.999939 114.666801,339.999939 1.000103,339.999969 
	C1.000000,269.166656 1.000000,198.333328 1.000000,127.000000 
M166.804520,216.062729 
	C173.193207,207.854340 179.581894,199.645950 185.995499,191.405548 
	C148.642395,142.575668 111.584961,94.132301 74.130592,45.170040 
	C83.470940,45.170040 92.090927,45.296040 100.703453,45.098034 
	C103.514442,45.033409 105.138206,46.013195 106.790565,48.207710 
	C132.921402,82.912415 159.139481,117.551445 185.350388,152.195847 
	C190.314041,158.756577 195.332932,165.275528 200.412094,171.926041 
	C242.139648,117.415039 289.772552,68.677551 333.710297,15.829973 
	C317.108459,15.829973 301.447968,15.709199 285.793549,15.964324 
	C283.528351,16.001242 280.636627,17.258158 279.143158,18.936672 
	C261.315399,38.973366 243.691681,59.191734 226.026764,79.373238 
	C215.758652,91.104187 205.512558,102.854431 195.177429,114.686584 
	C185.553055,101.970718 175.753616,89.142227 166.082306,76.217842 
	C151.632690,56.907917 137.322922,37.492950 122.771637,18.260378 
	C121.724487,16.876352 119.197685,15.937863 117.354179,15.930299 
	C83.858955,15.792839 50.363014,15.826004 16.867247,15.849400 
	C15.833560,15.850121 14.800073,16.135632 13.233321,16.367165 
	C56.473785,72.723114 99.325890,128.572922 142.239471,184.502838 
	C141.340775,185.448776 140.515579,186.257599 139.756790,187.124527 
	C100.483078,231.995758 61.210194,276.867706 21.980457,321.777374 
	C21.192514,322.679413 20.915222,324.027527 20.162109,325.189178 
	C20.162109,325.189178 20.083704,325.029572 20.083704,325.029572 
	C20.083704,325.029572 20.320684,325.201691 21.037180,324.613800 
	C36.497841,324.579987 51.959557,324.440948 67.418335,324.595673 
	C70.751060,324.629028 72.916100,323.549988 75.049614,321.099670 
	C96.874466,296.033936 118.834496,271.085938 140.674835,246.033630 
	C149.288177,236.153564 157.695816,226.094177 166.117844,216.009445 
	C166.117844,216.009445 166.122040,216.142166 166.804520,216.062729 
z"/>
<path fill="#14161A" opacity="1.000000" stroke="none" 
	d="
M20.399689,325.167511 
	C20.915222,324.027527 21.192514,322.679413 21.980457,321.777374 
	C61.210194,276.867706 100.483078,231.995758 139.756790,187.124527 
	C140.515579,186.257599 141.340775,185.448776 142.239471,184.502838 
	C99.325890,128.572922 56.473785,72.723114 13.233321,16.367165 
	C14.800073,16.135632 15.833560,15.850121 16.867247,15.849400 
	C50.363014,15.826004 83.858955,15.792839 117.354179,15.930299 
	C119.197685,15.937863 121.724487,16.876352 122.771637,18.260378 
	C137.322922,37.492950 151.632690,56.907917 166.082306,76.217842 
	C175.753616,89.142227 185.553055,101.970718 195.177429,114.686584 
	C205.512558,102.854431 215.758652,91.104187 226.026764,79.373238 
	C243.691681,59.191734 261.315399,38.973366 279.143158,18.936672 
	C280.636627,17.258158 283.528351,16.001242 285.793549,15.964324 
	C301.447968,15.709199 317.108459,15.829973 333.710297,15.829973 
	C289.772552,68.677551 242.139648,117.415039 200.412094,171.926041 
	C195.332932,165.275528 190.314041,158.756577 185.350388,152.195847 
	C159.139481,117.551445 132.921402,82.912415 106.790565,48.207710 
	C105.138206,46.013195 103.514442,45.033409 100.703453,45.098034 
	C92.090927,45.296040 83.470940,45.170040 74.130592,45.170040 
	C111.584961,94.132301 148.642395,142.575668 185.995499,191.405548 
	C179.581894,199.645950 173.193207,207.854340 166.400818,215.805344 
	C165.585876,215.218384 165.176102,214.886765 164.751999,214.574692 
	C164.743988,214.568787 164.566010,214.793915 164.467346,214.911255 
	C165.043945,215.312973 165.620529,215.714706 166.197113,216.116440 
	C157.695816,226.094177 149.288177,236.153564 140.674835,246.033630 
	C118.834496,271.085938 96.874466,296.033936 75.049614,321.099670 
	C72.916100,323.549988 70.751060,324.629028 67.418335,324.595673 
	C51.959557,324.440948 36.497841,324.579987 20.684780,324.864807 
	C20.332382,325.115784 20.399687,325.167511 20.399689,325.167511 
M149.100861,194.318298 
	C149.195053,194.360657 149.289261,194.403015 149.383453,194.445374 
	C149.276764,194.281342 149.170059,194.117310 148.959122,193.391357 
	C148.642242,193.078384 148.325363,192.765396 148.008484,192.452423 
	C147.825424,192.662979 147.642365,192.873535 147.459320,193.084091 
	C147.959091,193.408279 148.458862,193.732468 149.100861,194.318298 
M162.101364,211.315292 
	C162.194901,211.358154 162.288437,211.401016 162.381973,211.443878 
	C162.274429,211.281235 162.166885,211.118591 161.957306,210.393585 
	C161.641205,210.080078 161.325089,209.766586 161.008972,209.453094 
	C160.825974,209.663544 160.642975,209.873993 160.459991,210.084442 
	C160.960297,210.407288 161.460587,210.730148 162.101364,211.315292 
M145.204468,189.611115 
	C145.208801,189.214478 145.213135,188.817856 145.217468,188.421234 
	C145.052872,188.419876 144.745255,188.407410 144.744354,188.418762 
	C144.713730,188.813370 144.712036,189.210220 145.204468,189.611115 
M158.572052,206.296524 
	C158.298096,206.009613 158.024155,205.722717 157.750198,205.435806 
	C157.631317,205.549377 157.512421,205.662949 157.393524,205.776505 
	C157.667877,206.063461 157.942215,206.350403 158.572052,206.296524 
M154.702866,202.570740 
	C154.989975,202.296677 155.277100,202.022614 155.564224,201.748550 
	C155.450607,201.629776 155.244461,201.401489 155.236694,201.408066 
	C154.933899,201.663834 154.649216,201.941025 154.702866,202.570740 
M150.430130,196.701859 
	C150.705139,196.989853 150.980133,197.277863 151.255142,197.565857 
	C151.374252,197.451828 151.603226,197.244934 151.596634,197.237137 
	C151.340027,196.933533 151.061935,196.648117 150.430130,196.701859 
M214.296371,138.431946 
	C214.010773,138.704544 213.725159,138.977142 213.439545,139.249725 
	C213.552567,139.367920 213.757645,139.595108 213.765381,139.588577 
	C214.066605,139.334183 214.349838,139.058472 214.296371,138.431946 
M211.202255,135.608688 
	C211.206451,135.214340 211.210632,134.820007 211.214828,134.425674 
	C211.051178,134.424164 210.745331,134.411682 210.744476,134.422714 
	C210.714218,134.815109 210.712509,135.209702 211.202255,135.608688 
M208.296295,130.431961 
	C208.010696,130.704575 207.725098,130.977173 207.439499,131.249786 
	C207.552521,131.367981 207.757599,131.595169 207.765305,131.588654 
	C208.066544,131.334244 208.349777,131.058533 208.296295,130.431961 
M205.608688,126.797867 
	C205.214310,126.793686 204.819946,126.789497 204.425568,126.785309 
	C204.424026,126.948959 204.411530,127.254868 204.422531,127.255722 
	C204.814972,127.285957 205.209610,127.287659 205.608688,126.797867 
M202.202148,123.608673 
	C202.206345,123.214325 202.210556,122.819984 202.214752,122.425629 
	C202.051102,122.424118 201.745209,122.411621 201.744354,122.422676 
	C201.714081,122.815071 201.712387,123.209686 202.202148,123.608673 
M199.296158,118.431946 
	C199.010559,118.704544 198.724960,118.977150 198.439362,119.249756 
	C198.552383,119.367958 198.757462,119.595131 198.765167,119.588638 
	C199.066391,119.334198 199.349625,119.058495 199.296158,118.431946 
z"/>
<path fill="#15171B" opacity="1.000000" stroke="none" 
	d="
M20.280899,325.178345 
	C20.399687,325.167511 20.332382,325.115784 20.326534,325.158752 
	C20.320684,325.201691 20.083704,325.029572 20.083704,325.029572 
	C20.083704,325.029572 20.162109,325.189178 20.280899,325.178345 
z"/>
<path fill="#15171B" opacity="1.000000" stroke="none" 
	d="
M144.955353,189.608932 
	C144.712036,189.210220 144.713730,188.813370 144.744354,188.418762 
	C144.745255,188.407410 145.052872,188.419876 145.217468,188.421234 
	C145.213135,188.817856 145.208801,189.214478 144.955353,189.608932 
z"/>
<path fill="#15171B" opacity="1.000000" stroke="none" 
	d="
M166.157471,216.062943 
	C165.620529,215.714706 165.043945,215.312973 164.467346,214.911255 
	C164.566010,214.793915 164.743988,214.568787 164.751999,214.574692 
	C165.176102,214.886765 165.585876,215.218384 166.059586,215.845062 
	C166.122040,216.142166 166.117844,216.009445 166.157471,216.062943 
z"/>
<path fill="#15171B" opacity="1.000000" stroke="none" 
	d="
M161.960892,211.053009 
	C161.460587,210.730148 160.960297,210.407288 160.459991,210.084442 
	C160.642975,209.873993 160.825974,209.663544 161.008972,209.453094 
	C161.325089,209.766586 161.641205,210.080078 161.981842,210.697113 
	C162.006363,211.000656 161.960892,211.053009 161.960892,211.053009 
z"/>
<path fill="#15171B" opacity="1.000000" stroke="none" 
	d="
M158.394318,206.466949 
	C157.942215,206.350403 157.667877,206.063461 157.393524,205.776505 
	C157.512421,205.662949 157.631317,205.549377 157.750198,205.435806 
	C158.024155,205.722717 158.298096,206.009613 158.394318,206.466949 
z"/>
<path fill="#15171B" opacity="1.000000" stroke="none" 
	d="
M154.532501,202.393066 
	C154.649216,201.941025 154.933899,201.663834 155.236694,201.408066 
	C155.244461,201.401489 155.450607,201.629776 155.564224,201.748550 
	C155.277100,202.022614 154.989975,202.296677 154.532501,202.393066 
z"/>
<path fill="#15171B" opacity="1.000000" stroke="none" 
	d="
M150.608398,196.531067 
	C151.061935,196.648117 151.340027,196.933533 151.596634,197.237137 
	C151.603226,197.244934 151.374252,197.451828 151.255142,197.565857 
	C150.980133,197.277863 150.705139,196.989853 150.608398,196.531067 
z"/>
<path fill="#15171B" opacity="1.000000" stroke="none" 
	d="
M148.958633,194.056641 
	C148.458862,193.732468 147.959091,193.408279 147.459320,193.084091 
	C147.642365,192.873535 147.825424,192.662979 148.008484,192.452423 
	C148.325363,192.765396 148.642242,193.078384 148.983032,193.696106 
	C149.006943,194.000854 148.958633,194.056641 148.958633,194.056641 
z"/>
<path fill="#14161A" opacity="1.000000" stroke="none" 
	d="
M214.465912,138.608749 
	C214.349838,139.058472 214.066605,139.334183 213.765381,139.588577 
	C213.757645,139.595108 213.552567,139.367920 213.439545,139.249725 
	C213.725159,138.977142 214.010773,138.704544 214.465912,138.608749 
z"/>
<path fill="#14161A" opacity="1.000000" stroke="none" 
	d="
M210.954529,135.606339 
	C210.712509,135.209702 210.714218,134.815109 210.744476,134.422714 
	C210.745331,134.411682 211.051178,134.424164 211.214828,134.425659 
	C211.210632,134.820007 211.206451,135.214340 210.954529,135.606339 
z"/>
<path fill="#14161A" opacity="1.000000" stroke="none" 
	d="
M208.465820,130.608780 
	C208.349777,131.058533 208.066544,131.334244 207.765305,131.588654 
	C207.757599,131.595169 207.552521,131.367981 207.439499,131.249786 
	C207.725098,130.977173 208.010696,130.704575 208.465820,130.608780 
z"/>
<path fill="#14161A" opacity="1.000000" stroke="none" 
	d="
M205.606323,127.045609 
	C205.209610,127.287659 204.814972,127.285957 204.422531,127.255722 
	C204.411530,127.254868 204.424026,126.948959 204.425568,126.785309 
	C204.819946,126.789497 205.214310,126.793686 205.606323,127.045609 
z"/>
<path fill="#14161A" opacity="1.000000" stroke="none" 
	d="
M201.954407,123.606323 
	C201.712387,123.209686 201.714081,122.815071 201.744354,122.422676 
	C201.745209,122.411621 202.051102,122.424118 202.214752,122.425629 
	C202.210556,122.819984 202.206345,123.214325 201.954407,123.606323 
z"/>
<path fill="#14161A" opacity="1.000000" stroke="none" 
	d="
M199.465698,118.608757 
	C199.349625,119.058495 199.066391,119.334198 198.765167,119.588638 
	C198.757462,119.595131 198.552383,119.367958 198.439362,119.249756 
	C198.724960,118.977150 199.010559,118.704544 199.465698,118.608757 
z"/>
<path fill="#15171B" opacity="1.000000" stroke="none" 
	d="
M149.035156,193.977066 
	C149.170059,194.117310 149.276764,194.281342 149.383453,194.445374 
	C149.289261,194.403015 149.195053,194.360657 149.029755,194.187469 
	C148.958633,194.056641 149.006943,194.000854 149.035156,193.977066 
z"/>
<path fill="#15171B" opacity="1.000000" stroke="none" 
	d="
M162.032852,210.978302 
	C162.166885,211.118591 162.274429,211.281235 162.381973,211.443878 
	C162.288437,211.401016 162.194901,211.358154 162.031128,211.184143 
	C161.960892,211.053009 162.006363,211.000656 162.032852,210.978302 
z"/>
</svg>