<?xml version="1.0" standalone="no"?>
<!DOCTYPE svg PUBLIC "-//W3C//DTD SVG 20010904//EN"
 "http://www.w3.org/TR/2001/REC-SVG-20010904/DTD/svg10.dtd">
<svg version="1.0" xmlns="http://www.w3.org/2000/svg"
 width="341.000000pt" height="339.000000pt" viewBox="0 0 341.000000 339.000000"
 preserveAspectRatio="xMidYMid meet">

<g transform="translate(0.000000,339.000000) scale(0.100000,-0.100000)"
fill="#000000" stroke="none">
<path d="M136 3228 c6 -11 243 -320 669 -874 197 -256 446 -583 638 -839 104
-137 195 -256 202 -264 11 -11 29 8 105 109 81 107 91 126 81 142 -10 16 -249
329 -829 1088 -57 74 -137 178 -178 230 -114 144 -120 130 59 130 l154 0 255
-337 c141 -186 357 -471 480 -634 l224 -297 87 114 c48 63 90 120 93 127 3 8
-52 87 -121 178 -362 473 -805 1059 -829 1097 l-26 42 -536 0 c-425 0 -534 -3
-528 -12z"/>
<path d="M2380 2749 c-289 -330 -428 -495 -422 -502 5 -7 57 -76 116 -154 58
-79 110 -143 114 -143 7 0 1090 1229 1120 1272 13 17 3 18 -242 18 l-255 0
-431 -491z"/>
<path d="M814 868 c-324 -369 -595 -680 -602 -690 -13 -17 -4 -18 242 -18
l256 0 454 519 c250 285 460 528 467 539 11 17 -1 36 -102 170 -63 83 -117
151 -120 151 -4 1 -271 -301 -595 -671z"/>
</g>
</svg>
