<?xml version="1.0" standalone="no"?>
<!DOCTYPE svg PUBLIC "-//W3C//DTD SVG 20010904//EN"
 "http://www.w3.org/TR/2001/REC-SVG-20010904/DTD/svg10.dtd">
<svg version="1.0" xmlns="http://www.w3.org/2000/svg"
 width="1583.000000pt" height="1746.000000pt" viewBox="0 0 1583.000000 1746.000000"
 preserveAspectRatio="xMidYMid meet">

<g transform="translate(0.000000,1746.000000) scale(0.100000,-0.100000)"
fill="#8a66f1" stroke="none">
<path d="M15090 16772 c-8 -3 -215 -98 -460 -212 -545 -255 -566 -265 -1600
-755 -217 -103 -435 -207 -485 -230 -84 -40 -896 -424 -1140 -540 -60 -29
-279 -132 -485 -230 -206 -98 -462 -220 -568 -271 l-193 -93 688 -517 c378
-284 698 -526 710 -537 l22 -20 -32 -37 c-18 -21 -110 -125 -206 -231 -231
-257 -211 -236 -417 -469 -172 -196 -263 -299 -844 -970 -361 -416 -531 -614
-883 -1025 -170 -198 -343 -400 -385 -449 -42 -49 -104 -122 -137 -161 -33
-39 -96 -114 -140 -166 -136 -161 -288 -343 -337 -406 l-47 -60 90 -114 c50
-63 98 -123 107 -134 10 -11 27 -34 39 -51 13 -17 34 -44 47 -60 13 -16 78
-96 143 -179 169 -213 470 -594 502 -634 14 -19 36 -46 48 -60 l22 -26 57 60
c157 166 779 870 1894 2145 1207 1379 1784 2030 1800 2030 10 0 286 -202 730
-535 359 -269 534 -391 578 -402 42 -10 56 8 74 98 68 338 835 5199 826 5234
-2 7 -10 10 -18 7z"/>
<path d="M740 13493 c-101 -2 -188 -7 -192 -11 -4 -4 29 -57 74 -117 342 -463
2058 -2703 2263 -2955 106 -131 527 -676 876 -1135 657 -864 1680 -2213 2029
-2675 222 -294 473 -627 558 -740 240 -317 523 -680 531 -680 36 0 449 513
653 810 131 190 136 219 53 335 -143 199 -3280 4309 -3899 5108 -384 496 -636
827 -636 837 0 13 267 20 771 20 l497 0 689 -912 c380 -502 941 -1246 1248
-1653 687 -910 1494 -1975 1721 -2271 93 -121 207 -271 254 -332 46 -62 87
-112 90 -112 7 0 543 712 643 854 43 61 94 138 114 170 39 67 38 73 -19 148
-37 49 -150 190 -158 198 -3 3 -68 84 -145 180 -77 96 -145 180 -151 185 -20
18 -258 318 -314 395 -30 41 -81 107 -113 145 -33 39 -62 77 -65 85 -3 8 -16
23 -29 33 -52 41 -1298 1676 -2360 3097 -471 631 -582 783 -664 913 l-54 87
-2040 -2 c-1122 -2 -2123 -4 -2225 -5z"/>
<path d="M5824 6376 c-16 -18 -142 -159 -280 -313 -670 -745 -3241 -3670
-4269 -4858 -398 -460 -415 -480 -415 -493 0 -6 17 -16 37 -22 56 -17 642 -29
1398 -29 l660 -1 1331 1523 c1391 1590 2191 2510 2400 2760 97 114 124 154
124 176 0 67 -79 188 -424 645 -270 357 -497 640 -517 644 -9 2 -29 -13 -45
-32z"/>
</g>
</svg>
