<?xml version="1.0" standalone="no"?>
<!DOCTYPE svg PUBLIC "-//W3C//DTD SVG 20010904//EN"
 "http://www.w3.org/TR/2001/REC-SVG-20010904/DTD/svg10.dtd">
<svg version="1.0" xmlns="http://www.w3.org/2000/svg"
 width="380.000000pt" height="419.000000pt" viewBox="0 0 380.000000 419.000000"
 preserveAspectRatio="xMidYMid meet">

<g transform="translate(0.000000,419.000000) scale(0.100000,-0.100000)"
fill="#8a61ff" stroke="none">
<path d="M3090 3774 c-294 -139 -561 -266 -593 -281 l-57 -28 171 -128 171
-129 -24 -26 c-142 -154 -801 -919 -801 -929 0 -9 -8 -6 -23 9 -30 32 -674
883 -707 936 l-27 42 -535 0 c-294 0 -535 -2 -535 -5 0 -5 560 -737 570 -745
4 -3 99 -127 213 -276 113 -150 275 -362 359 -473 84 -111 202 -267 262 -347
61 -80 113 -147 117 -150 5 -2 49 50 100 117 84 111 91 124 79 143 -12 18
-157 209 -797 1046 -78 102 -178 232 -223 289 -44 57 -80 105 -80 107 0 2 69
4 154 4 l153 0 414 -548 c227 -301 443 -586 480 -633 l66 -87 86 114 c48 62
90 121 94 130 3 10 19 29 34 43 15 14 219 245 454 514 234 268 428 487 431
487 3 0 76 -54 164 -120 147 -111 160 -118 165 -98 9 37 205 1272 202 1274 -1
1 -243 -112 -537 -252z m-1060 -1624 c33 -44 59 -80 56 -80 -3 0 -33 36 -66
80 -33 44 -59 80 -56 80 3 0 33 -36 66 -80z m81 -107 c13 -16 12 -17 -3 -4
-10 7 -18 15 -18 17 0 8 8 3 21 -13z m30 -40 c13 -16 12 -17 -3 -4 -10 7 -18
15 -18 17 0 8 8 3 21 -13z"/>
<path d="M808 863 c-326 -372 -597 -682 -601 -690 -7 -11 37 -13 247 -13 l256
0 454 519 c250 285 460 528 467 539 11 17 -1 36 -102 170 -63 83 -117 151
-121 151 -3 1 -273 -304 -600 -676z"/>
</g>
</svg>
