<svg version="1.1" id="Layer_1" xmlns="http://www.w3.org/2000/svg" xmlns:xlink="http://www.w3.org/1999/xlink" x="0px" y="0px"
	 width="100%" viewBox="0 0 508 332" enable-background="new 0 0 508 332" xml:space="preserve">
<path fill="transparent" opacity="1.000000" stroke="none" 
	d="
M312.000000,333.000000 
	C208.000015,333.000000 104.500023,333.000000 1.000028,333.000000 
	C1.000019,222.333359 1.000019,111.666718 1.000009,1.000057 
	C170.333298,1.000038 339.666595,1.000038 508.999908,1.000019 
	C508.999939,111.666603 508.999939,222.333206 508.999969,332.999908 
	C443.500000,333.000000 378.000000,333.000000 312.000000,333.000000 
M102.967049,59.025917 
	C111.960991,58.957840 120.954926,58.889763 130.880859,58.964947 
	C133.546982,58.976734 136.258438,59.308762 138.870499,58.938828 
	C146.021423,57.926067 150.476898,61.117619 154.699402,66.735397 
	C195.916000,121.571495 237.366089,176.232117 278.766663,230.929871 
	C284.849762,238.966751 291.021423,246.936600 297.351562,255.197784 
	C340.363892,199.380692 386.902222,147.376923 433.100372,95.077225 
	C454.932587,70.361519 476.392944,45.316994 497.957031,20.365463 
	C499.402344,18.693142 500.298889,16.546572 501.986237,13.725122 
	C498.658081,13.725122 496.844055,13.719625 495.030090,13.725961 
	C473.867767,13.799885 452.704712,14.001256 431.543610,13.874995 
	C425.113068,13.836627 420.506531,16.414213 416.539825,21.204189 
	C410.969360,27.930719 405.127655,34.433640 399.366791,41.001339 
	C369.270203,75.312912 339.162994,109.615196 309.058228,143.919601 
	C302.534821,151.352997 296.006073,158.781723 289.337738,166.374329 
	C287.923004,164.669922 286.924957,163.565216 286.033997,162.380005 
	C251.222260,116.071968 216.259399,69.875702 181.790176,23.314014 
	C176.609390,16.315735 170.782623,13.884761 162.662628,13.893151 
	C114.338814,13.943087 66.014824,13.809208 17.690889,13.738066 
	C14.618760,13.733543 11.546620,13.737477 7.201870,13.737477 
	C86.791306,117.627632 165.470581,220.329727 244.532898,323.531830 
	C254.792953,310.744568 264.867035,298.189087 274.978882,285.586548 
	C237.881287,237.081894 200.939941,188.821182 164.044388,140.525482 
	C143.337250,113.420189 122.705879,86.256996 102.967049,59.025917 
z"/>
<path fill="#7D4FFE" opacity="1.000000" stroke="none" 
	d="
M102.040375,59.119888 
	C122.705879,86.256996 143.337250,113.420189 164.044388,140.525482 
	C200.939941,188.821182 237.881287,237.081894 274.978882,285.586548 
	C264.867035,298.189087 254.792953,310.744568 244.532898,323.531830 
	C165.470581,220.329727 86.791306,117.627632 7.201870,13.737477 
	C11.546620,13.737477 14.618760,13.733543 17.690889,13.738066 
	C66.014824,13.809208 114.338814,13.943087 162.662628,13.893151 
	C170.782623,13.884761 176.609390,16.315735 181.790176,23.314014 
	C216.259399,69.875702 251.222260,116.071968 286.033997,162.380005 
	C286.924957,163.565216 287.923004,164.669922 289.337738,166.374329 
	C296.006073,158.781723 302.534821,151.352997 309.058228,143.919601 
	C339.162994,109.615196 369.270203,75.312912 399.366791,41.001339 
	C405.127655,34.433640 410.969360,27.930719 416.539825,21.204189 
	C420.506531,16.414213 425.113068,13.836627 431.543610,13.874995 
	C452.704712,14.001256 473.867767,13.799885 495.030090,13.725961 
	C496.844055,13.719625 498.658081,13.725122 501.986237,13.725122 
	C500.298889,16.546572 499.402344,18.693142 497.957031,20.365463 
	C476.392944,45.316994 454.932587,70.361519 433.100372,95.077225 
	C386.902222,147.376923 340.363892,199.380692 297.351562,255.197784 
	C291.021423,246.936600 284.849762,238.966751 278.766663,230.929871 
	C237.366089,176.232117 195.916000,121.571495 154.699402,66.735397 
	C150.476898,61.117619 146.021423,57.926067 138.870499,58.938828 
	C136.258438,59.308762 133.546982,58.976734 130.100647,58.630287 
	C121.907478,58.197754 114.494278,58.028954 107.081795,58.055927 
	C105.400055,58.062046 103.720779,58.747257 102.040375,59.119888 
z"/>
<path fill="#704ED9" opacity="1.000000" stroke="none" 
	d="
M102.503708,59.072903 
	C103.720779,58.747257 105.400055,58.062046 107.081795,58.055927 
	C114.494278,58.028954 121.907478,58.197754 129.634644,58.558662 
	C120.954926,58.889763 111.960991,58.957840 102.503708,59.072903 
z"/>
</svg>